{
	"asset":{
		"generator":"Khronos glTF Blender I/O v4.0.44",
		"version":"2.0"
	},
	"scene":0,
	"scenes":[
		{
			"name":"Scene",
			"nodes":[
				0,
				1,
				2,
				3,
				4,
				5,
				6,
				7,
				8,
				9,
				10,
				11,
				12
			]
		}
	],
	"nodes":[
		{
			"mesh":0,
			"name":"arm"
		},
		{
			"mesh":1,
			"name":"axis"
		},
		{
			"mesh":2,
			"name":"glass"
		},
		{
			"mesh":3,
			"name":"housing"
		},
		{
			"mesh":4,
			"name":"ldg-cable"
		},
		{
			"mesh":5,
			"name":"ldg-glass"
		},
		{
			"mesh":6,
			"name":"ldg-housing"
		},
		{
			"mesh":7,
			"name":"ldg-leds"
		},
		{
			"mesh":8,
			"name":"ldg-mount"
		},
		{
			"mesh":9,
			"name":"ldg-reflector"
		},
		{
			"mesh":10,
			"name":"leds"
		},
		{
			"mesh":11,
			"name":"pod"
		},
		{
			"mesh":12,
			"name":"reflector"
		}
	],
	"materials":[
		{
			"doubleSided":true,
			"name":"lblack",
			"pbrMetallicRoughness":{
				"baseColorFactor":[
					0.09399999678134918,
					0.09399999678134918,
					0.09399999678134918,
					1
				],
				"metallicFactor":0,
				"roughnessFactor":0.5
			}
		},
		{
			"doubleSided":true,
			"name":"DefaultWhite",
			"pbrMetallicRoughness":{
				"metallicFactor":0,
				"roughnessFactor":0.5
			}
		},
		{
			"alphaMode":"BLEND",
			"doubleSided":true,
			"name":"lglass",
			"pbrMetallicRoughness":{
				"baseColorFactor":[
					0.09846030175685883,
					0.09846030175685883,
					0.09846030175685883,
					0.699999988079071
				],
				"metallicFactor":0.05000000074505806,
				"roughnessFactor":0.30000001192092896
			}
		},
		{
			"doubleSided":true,
			"name":"lwhite",
			"pbrMetallicRoughness":{
				"metallicFactor":0,
				"roughnessFactor":0.5
			}
		},
		{
			"doubleSided":true,
			"name":"lgray",
			"pbrMetallicRoughness":{
				"metallicFactor":0.800000011920929,
				"roughnessFactor":0.20000000298023224
			}
		},
		{
			"doubleSided":true,
			"name":"lwhite.001",
			"pbrMetallicRoughness":{
				"baseColorTexture":{
					"index":0
				},
				"metallicFactor":0,
				"roughnessFactor":0.5
			}
		}
	],
	"meshes":[
		{
			"name":"Cube",
			"primitives":[
				{
					"attributes":{
						"POSITION":0,
						"NORMAL":1,
						"TEXCOORD_0":2
					},
					"indices":3,
					"material":0
				}
			]
		},
		{
			"name":"NurbsPath",
			"primitives":[
				{
					"attributes":{
						"POSITION":4
					},
					"indices":5,
					"material":1,
					"mode":1
				}
			]
		},
		{
			"name":"Sphere.002",
			"primitives":[
				{
					"attributes":{
						"POSITION":6,
						"NORMAL":7,
						"TEXCOORD_0":8
					},
					"indices":9,
					"material":2
				}
			]
		},
		{
			"name":"Sphere",
			"primitives":[
				{
					"attributes":{
						"POSITION":10,
						"NORMAL":11,
						"TEXCOORD_0":12
					},
					"indices":13,
					"material":0
				}
			]
		},
		{
			"name":"NurbsPath.001",
			"primitives":[
				{
					"attributes":{
						"POSITION":14,
						"NORMAL":15,
						"TEXCOORD_0":16
					},
					"indices":17,
					"material":0
				}
			]
		},
		{
			"name":"Sphere.006",
			"primitives":[
				{
					"attributes":{
						"POSITION":18,
						"NORMAL":19,
						"TEXCOORD_0":20
					},
					"indices":9,
					"material":2
				}
			]
		},
		{
			"name":"Sphere.004",
			"primitives":[
				{
					"attributes":{
						"POSITION":21,
						"NORMAL":22,
						"TEXCOORD_0":23
					},
					"indices":24,
					"material":0
				}
			]
		},
		{
			"name":"Sphere.005",
			"primitives":[
				{
					"attributes":{
						"POSITION":25,
						"NORMAL":26,
						"TEXCOORD_0":27
					},
					"indices":28,
					"material":3
				}
			]
		},
		{
			"name":"Cube.001",
			"primitives":[
				{
					"attributes":{
						"POSITION":29,
						"NORMAL":30,
						"TEXCOORD_0":31
					},
					"indices":32,
					"material":0
				}
			]
		},
		{
			"name":"Sphere.007",
			"primitives":[
				{
					"attributes":{
						"POSITION":33,
						"NORMAL":34,
						"TEXCOORD_0":35
					},
					"indices":36,
					"material":4
				}
			]
		},
		{
			"name":"Sphere.001",
			"primitives":[
				{
					"attributes":{
						"POSITION":37,
						"NORMAL":38,
						"TEXCOORD_0":39
					},
					"indices":40,
					"material":3
				}
			]
		},
		{
			"name":"Cylinder",
			"primitives":[
				{
					"attributes":{
						"POSITION":41,
						"NORMAL":42,
						"TEXCOORD_0":43
					},
					"indices":44,
					"material":5
				}
			]
		},
		{
			"name":"Sphere.003",
			"primitives":[
				{
					"attributes":{
						"POSITION":45,
						"NORMAL":46,
						"TEXCOORD_0":47
					},
					"indices":36,
					"material":4
				}
			]
		}
	],
	"textures":[
		{
			"sampler":0,
			"source":0
		}
	],
	"images":[
		{
			"mimeType":"image/png",
			"name":"white.png",
			"uri":"white.png"
		}
	],
	"accessors":[
		{
			"bufferView":0,
			"componentType":5126,
			"count":16,
			"max":[
				0.05604999512434006,
				0.028510000556707382,
				0.012480001896619797
			],
			"min":[
				0.00014999999257270247,
				-0.02855999954044819,
				-0.014810001477599144
			],
			"type":"VEC3"
		},
		{
			"bufferView":1,
			"componentType":5126,
			"count":16,
			"type":"VEC3"
		},
		{
			"bufferView":2,
			"componentType":5126,
			"count":16,
			"type":"VEC2"
		},
		{
			"bufferView":3,
			"componentType":5123,
			"count":24,
			"type":"SCALAR"
		},
		{
			"bufferView":4,
			"componentType":5126,
			"count":12,
			"max":[
				0.004129999317228794,
				0.4977400004863739,
				-0.004269987344741821
			],
			"min":[
				0.004129999317228794,
				-0.5022600293159485,
				-0.004270017147064209
			],
			"type":"VEC3"
		},
		{
			"bufferView":5,
			"componentType":5123,
			"count":22,
			"type":"SCALAR"
		},
		{
			"bufferView":6,
			"componentType":5126,
			"count":160,
			"max":[
				0.23022998869419098,
				0.08986999839544296,
				-0.013220000080764294
			],
			"min":[
				0.051399994641542435,
				-0.09040000289678574,
				-0.04025999829173088
			],
			"type":"VEC3"
		},
		{
			"bufferView":7,
			"componentType":5126,
			"count":160,
			"type":"VEC3"
		},
		{
			"bufferView":8,
			"componentType":5126,
			"count":160,
			"type":"VEC2"
		},
		{
			"bufferView":9,
			"componentType":5123,
			"count":282,
			"type":"SCALAR"
		},
		{
			"bufferView":10,
			"componentType":5126,
			"count":868,
			"max":[
				0.23643998801708221,
				0.09589999914169312,
				0.06888999789953232
			],
			"min":[
				0.04510999470949173,
				-0.09644000232219696,
				-0.04010000079870224
			],
			"type":"VEC3"
		},
		{
			"bufferView":11,
			"componentType":5126,
			"count":868,
			"type":"VEC3"
		},
		{
			"bufferView":12,
			"componentType":5126,
			"count":868,
			"type":"VEC2"
		},
		{
			"bufferView":13,
			"componentType":5123,
			"count":1308,
			"type":"SCALAR"
		},
		{
			"bufferView":14,
			"componentType":5126,
			"count":1416,
			"max":[
				1.07958984375,
				0.08653999865055084,
				-0.03691000118851662
			],
			"min":[
				0.9613399505615234,
				-0.07163999229669571,
				-0.12669998407363892
			],
			"type":"VEC3"
		},
		{
			"bufferView":15,
			"componentType":5126,
			"count":1416,
			"type":"VEC3"
		},
		{
			"bufferView":16,
			"componentType":5126,
			"count":1416,
			"type":"VEC2"
		},
		{
			"bufferView":17,
			"componentType":5123,
			"count":2124,
			"type":"SCALAR"
		},
		{
			"bufferView":18,
			"componentType":5126,
			"count":160,
			"max":[
				1.0028698444366455,
				0.06401000916957855,
				-0.09624999761581421
			],
			"min":[
				0.9673799276351929,
				-0.06679999083280563,
				-0.22214999794960022
			],
			"type":"VEC3"
		},
		{
			"bufferView":19,
			"componentType":5126,
			"count":160,
			"type":"VEC3"
		},
		{
			"bufferView":20,
			"componentType":5126,
			"count":160,
			"type":"VEC2"
		},
		{
			"bufferView":21,
			"componentType":5126,
			"count":868,
			"max":[
				1.0529898405075073,
				0.06838001310825348,
				-0.09010999649763107
			],
			"min":[
				0.9405499696731567,
				-0.07117999345064163,
				-0.22684000432491302
			],
			"type":"VEC3"
		},
		{
			"bufferView":22,
			"componentType":5126,
			"count":868,
			"type":"VEC3"
		},
		{
			"bufferView":23,
			"componentType":5126,
			"count":868,
			"type":"VEC2"
		},
		{
			"bufferView":24,
			"componentType":5123,
			"count":1308,
			"type":"SCALAR"
		},
		{
			"bufferView":25,
			"componentType":5126,
			"count":259,
			"max":[
				1.010119915008545,
				0.04978001117706299,
				-0.10523000359535217
			],
			"min":[
				0.9787699580192566,
				-0.05064999312162399,
				-0.21404999494552612
			],
			"type":"VEC3"
		},
		{
			"bufferView":26,
			"componentType":5126,
			"count":259,
			"type":"VEC3"
		},
		{
			"bufferView":27,
			"componentType":5126,
			"count":259,
			"type":"VEC2"
		},
		{
			"bufferView":28,
			"componentType":5123,
			"count":462,
			"type":"SCALAR"
		},
		{
			"bufferView":29,
			"componentType":5126,
			"count":478,
			"max":[
				1.0076098442077637,
				0.01666000485420227,
				-0.04326999932527542
			],
			"min":[
				0.9777699112892151,
				-0.025819998234510422,
				-0.09729000180959702
			],
			"type":"VEC3"
		},
		{
			"bufferView":30,
			"componentType":5126,
			"count":478,
			"type":"VEC3"
		},
		{
			"bufferView":31,
			"componentType":5126,
			"count":478,
			"type":"VEC2"
		},
		{
			"bufferView":32,
			"componentType":5123,
			"count":912,
			"type":"SCALAR"
		},
		{
			"bufferView":33,
			"componentType":5126,
			"count":356,
			"max":[
				1.0510399341583252,
				0.06285999715328217,
				-0.0946199968457222
			],
			"min":[
				0.9695499539375305,
				-0.06564999371767044,
				-0.2205200046300888
			],
			"type":"VEC3"
		},
		{
			"bufferView":34,
			"componentType":5126,
			"count":356,
			"type":"VEC3"
		},
		{
			"bufferView":35,
			"componentType":5126,
			"count":356,
			"type":"VEC2"
		},
		{
			"bufferView":36,
			"componentType":5123,
			"count":540,
			"type":"SCALAR"
		},
		{
			"bufferView":37,
			"componentType":5126,
			"count":259,
			"max":[
				0.2238599807024002,
				0.07026000320911407,
				-0.0027600000612437725
			],
			"min":[
				0.06928998976945877,
				-0.06814999878406525,
				-0.02662000060081482
			],
			"type":"VEC3"
		},
		{
			"bufferView":38,
			"componentType":5126,
			"count":259,
			"type":"VEC3"
		},
		{
			"bufferView":39,
			"componentType":5126,
			"count":259,
			"type":"VEC2"
		},
		{
			"bufferView":40,
			"componentType":5123,
			"count":462,
			"type":"SCALAR"
		},
		{
			"bufferView":41,
			"componentType":5126,
			"count":199,
			"max":[
				0.29409995675086975,
				0.13052000105381012,
				0.12319999933242798
			],
			"min":[
				-0.14641998708248138,
				-0.1322699934244156,
				-0.03726999834179878
			],
			"type":"VEC3"
		},
		{
			"bufferView":42,
			"componentType":5126,
			"count":199,
			"type":"VEC3"
		},
		{
			"bufferView":43,
			"componentType":5126,
			"count":199,
			"type":"VEC2"
		},
		{
			"bufferView":44,
			"componentType":5123,
			"count":639,
			"type":"SCALAR"
		},
		{
			"bufferView":45,
			"componentType":5126,
			"count":356,
			"max":[
				0.2294899821281433,
				0.08827999979257584,
				0.06634999811649323
			],
			"min":[
				0.05331999808549881,
				-0.08882000297307968,
				-0.03319000080227852
			],
			"type":"VEC3"
		},
		{
			"bufferView":46,
			"componentType":5126,
			"count":356,
			"type":"VEC3"
		},
		{
			"bufferView":47,
			"componentType":5126,
			"count":356,
			"type":"VEC2"
		}
	],
	"bufferViews":[
		{
			"buffer":0,
			"byteLength":192,
			"byteOffset":0,
			"target":34962
		},
		{
			"buffer":0,
			"byteLength":192,
			"byteOffset":192,
			"target":34962
		},
		{
			"buffer":0,
			"byteLength":128,
			"byteOffset":384,
			"target":34962
		},
		{
			"buffer":0,
			"byteLength":48,
			"byteOffset":512,
			"target":34963
		},
		{
			"buffer":0,
			"byteLength":144,
			"byteOffset":560,
			"target":34962
		},
		{
			"buffer":0,
			"byteLength":44,
			"byteOffset":704,
			"target":34963
		},
		{
			"buffer":0,
			"byteLength":1920,
			"byteOffset":748,
			"target":34962
		},
		{
			"buffer":0,
			"byteLength":1920,
			"byteOffset":2668,
			"target":34962
		},
		{
			"buffer":0,
			"byteLength":1280,
			"byteOffset":4588,
			"target":34962
		},
		{
			"buffer":0,
			"byteLength":564,
			"byteOffset":5868,
			"target":34963
		},
		{
			"buffer":0,
			"byteLength":10416,
			"byteOffset":6432,
			"target":34962
		},
		{
			"buffer":0,
			"byteLength":10416,
			"byteOffset":16848,
			"target":34962
		},
		{
			"buffer":0,
			"byteLength":6944,
			"byteOffset":27264,
			"target":34962
		},
		{
			"buffer":0,
			"byteLength":2616,
			"byteOffset":34208,
			"target":34963
		},
		{
			"buffer":0,
			"byteLength":16992,
			"byteOffset":36824,
			"target":34962
		},
		{
			"buffer":0,
			"byteLength":16992,
			"byteOffset":53816,
			"target":34962
		},
		{
			"buffer":0,
			"byteLength":11328,
			"byteOffset":70808,
			"target":34962
		},
		{
			"buffer":0,
			"byteLength":4248,
			"byteOffset":82136,
			"target":34963
		},
		{
			"buffer":0,
			"byteLength":1920,
			"byteOffset":86384,
			"target":34962
		},
		{
			"buffer":0,
			"byteLength":1920,
			"byteOffset":88304,
			"target":34962
		},
		{
			"buffer":0,
			"byteLength":1280,
			"byteOffset":90224,
			"target":34962
		},
		{
			"buffer":0,
			"byteLength":10416,
			"byteOffset":91504,
			"target":34962
		},
		{
			"buffer":0,
			"byteLength":10416,
			"byteOffset":101920,
			"target":34962
		},
		{
			"buffer":0,
			"byteLength":6944,
			"byteOffset":112336,
			"target":34962
		},
		{
			"buffer":0,
			"byteLength":2616,
			"byteOffset":119280,
			"target":34963
		},
		{
			"buffer":0,
			"byteLength":3108,
			"byteOffset":121896,
			"target":34962
		},
		{
			"buffer":0,
			"byteLength":3108,
			"byteOffset":125004,
			"target":34962
		},
		{
			"buffer":0,
			"byteLength":2072,
			"byteOffset":128112,
			"target":34962
		},
		{
			"buffer":0,
			"byteLength":924,
			"byteOffset":130184,
			"target":34963
		},
		{
			"buffer":0,
			"byteLength":5736,
			"byteOffset":131108,
			"target":34962
		},
		{
			"buffer":0,
			"byteLength":5736,
			"byteOffset":136844,
			"target":34962
		},
		{
			"buffer":0,
			"byteLength":3824,
			"byteOffset":142580,
			"target":34962
		},
		{
			"buffer":0,
			"byteLength":1824,
			"byteOffset":146404,
			"target":34963
		},
		{
			"buffer":0,
			"byteLength":4272,
			"byteOffset":148228,
			"target":34962
		},
		{
			"buffer":0,
			"byteLength":4272,
			"byteOffset":152500,
			"target":34962
		},
		{
			"buffer":0,
			"byteLength":2848,
			"byteOffset":156772,
			"target":34962
		},
		{
			"buffer":0,
			"byteLength":1080,
			"byteOffset":159620,
			"target":34963
		},
		{
			"buffer":0,
			"byteLength":3108,
			"byteOffset":160700,
			"target":34962
		},
		{
			"buffer":0,
			"byteLength":3108,
			"byteOffset":163808,
			"target":34962
		},
		{
			"buffer":0,
			"byteLength":2072,
			"byteOffset":166916,
			"target":34962
		},
		{
			"buffer":0,
			"byteLength":924,
			"byteOffset":168988,
			"target":34963
		},
		{
			"buffer":0,
			"byteLength":2388,
			"byteOffset":169912,
			"target":34962
		},
		{
			"buffer":0,
			"byteLength":2388,
			"byteOffset":172300,
			"target":34962
		},
		{
			"buffer":0,
			"byteLength":1592,
			"byteOffset":174688,
			"target":34962
		},
		{
			"buffer":0,
			"byteLength":1278,
			"byteOffset":176280,
			"target":34963
		},
		{
			"buffer":0,
			"byteLength":4272,
			"byteOffset":177560,
			"target":34962
		},
		{
			"buffer":0,
			"byteLength":4272,
			"byteOffset":181832,
			"target":34962
		},
		{
			"buffer":0,
			"byteLength":2848,
			"byteOffset":186104,
			"target":34962
		}
	],
	"samplers":[
		{
			"magFilter":9729,
			"minFilter":9987
		}
	],
	"buffers":[
		{
			"byteLength":188952,
			"uri":"landinglight.bin"
		}
	]
}
