{
	"asset":{
		"generator":"Khronos glTF Blender I/O v4.0.44",
		"version":"2.0"
	},
	"scene":0,
	"scenes":[
		{
			"name":"Scene",
			"nodes":[
				0,
				1,
				2
			]
		}
	],
	"nodes":[
		{
			"mesh":0,
			"name":"house",
			"rotation":[
				0.7071068286895752,
				0,
				0,
				0.7071068286895752
			]
		},
		{
			"mesh":1,
			"name":"mount",
			"rotation":[
				0.7071068286895752,
				0,
				0,
				0.7071068286895752
			]
		},
		{
			"mesh":2,
			"name":"mirror",
			"rotation":[
				-0.9956612586975098,
				-0.04341351240873337,
				0.08198406547307968,
				0.00724626611918211
			],
			"scale":[
				0.020195111632347107,
				0.14382629096508026,
				0.20550145208835602
			],
			"translation":[
				-3.509920358657837,
				0.3987407684326172,
				-0.3612532615661621
			]
		}
	],
	"materials":[
		{
			"doubleSided":true,
			"name":"gray",
			"pbrMetallicRoughness":{
				"baseColorFactor":[
					0.12099999934434891,
					0.12099999934434891,
					0.12099999934434891,
					1
				],
				"metallicFactor":0,
				"roughnessFactor":0.5
			}
		},
		{
			"doubleSided":true,
			"name":"black",
			"pbrMetallicRoughness":{
				"baseColorFactor":[
					0.02199999988079071,
					0.02199999988079071,
					0.02199999988079071,
					1
				],
				"metallicFactor":0,
				"roughnessFactor":0.5
			}
		},
		{
			"doubleSided":true,
			"name":"mirror",
			"pbrMetallicRoughness":{
				"baseColorFactor":[
					0.7484261989593506,
					0.7484261989593506,
					0.7484261989593506,
					1
				],
				"roughnessFactor":0
			}
		}
	],
	"meshes":[
		{
			"name":"Cube",
			"primitives":[
				{
					"attributes":{
						"POSITION":0,
						"NORMAL":1,
						"TEXCOORD_0":2
					},
					"indices":3,
					"material":0
				}
			]
		},
		{
			"name":"NurbsPath.002",
			"primitives":[
				{
					"attributes":{
						"POSITION":4,
						"NORMAL":5,
						"TEXCOORD_0":6
					},
					"indices":7,
					"material":1
				}
			]
		},
		{
			"name":"Sphere",
			"primitives":[
				{
					"attributes":{
						"POSITION":8,
						"NORMAL":9,
						"TEXCOORD_0":10
					},
					"indices":11,
					"material":2
				}
			]
		}
	],
	"accessors":[
		{
			"bufferView":0,
			"componentType":5126,
			"count":581,
			"max":[
				-3.460059881210327,
				-0.2128099948167801,
				-0.30046001076698303
			],
			"min":[
				-3.5686299800872803,
				-0.514240026473999,
				-0.4991599917411804
			],
			"type":"VEC3"
		},
		{
			"bufferView":1,
			"componentType":5126,
			"count":581,
			"type":"VEC3"
		},
		{
			"bufferView":2,
			"componentType":5126,
			"count":581,
			"type":"VEC2"
		},
		{
			"bufferView":3,
			"componentType":5123,
			"count":1008,
			"type":"SCALAR"
		},
		{
			"bufferView":4,
			"componentType":5126,
			"count":1713,
			"max":[
				-2.889169931411743,
				0.00675999978557229,
				-0.06553000211715698
			],
			"min":[
				-3.584939956665039,
				-0.49588000774383545,
				-0.7054399847984314
			],
			"type":"VEC3"
		},
		{
			"bufferView":5,
			"componentType":5126,
			"count":1713,
			"type":"VEC3"
		},
		{
			"bufferView":6,
			"componentType":5126,
			"count":1713,
			"type":"VEC2"
		},
		{
			"bufferView":7,
			"componentType":5123,
			"count":3309,
			"type":"SCALAR"
		},
		{
			"bufferView":8,
			"componentType":5126,
			"count":625,
			"max":[
				0.9999998211860657,
				0.6687138080596924,
				0.7086203098297119
			],
			"min":[
				0.49999985098838806,
				-0.6746374368667603,
				-0.7086203098297119
			],
			"type":"VEC3"
		},
		{
			"bufferView":9,
			"componentType":5126,
			"count":625,
			"type":"VEC3"
		},
		{
			"bufferView":10,
			"componentType":5126,
			"count":625,
			"type":"VEC2"
		},
		{
			"bufferView":11,
			"componentType":5123,
			"count":3456,
			"type":"SCALAR"
		}
	],
	"bufferViews":[
		{
			"buffer":0,
			"byteLength":6972,
			"byteOffset":0,
			"target":34962
		},
		{
			"buffer":0,
			"byteLength":6972,
			"byteOffset":6972,
			"target":34962
		},
		{
			"buffer":0,
			"byteLength":4648,
			"byteOffset":13944,
			"target":34962
		},
		{
			"buffer":0,
			"byteLength":2016,
			"byteOffset":18592,
			"target":34963
		},
		{
			"buffer":0,
			"byteLength":20556,
			"byteOffset":20608,
			"target":34962
		},
		{
			"buffer":0,
			"byteLength":20556,
			"byteOffset":41164,
			"target":34962
		},
		{
			"buffer":0,
			"byteLength":13704,
			"byteOffset":61720,
			"target":34962
		},
		{
			"buffer":0,
			"byteLength":6618,
			"byteOffset":75424,
			"target":34963
		},
		{
			"buffer":0,
			"byteLength":7500,
			"byteOffset":82044,
			"target":34962
		},
		{
			"buffer":0,
			"byteLength":7500,
			"byteOffset":89544,
			"target":34962
		},
		{
			"buffer":0,
			"byteLength":5000,
			"byteOffset":97044,
			"target":34962
		},
		{
			"buffer":0,
			"byteLength":6912,
			"byteOffset":102044,
			"target":34963
		}
	],
	"buffers":[
		{
			"byteLength":108956,
			"uri":"mirror.bin"
		}
	]
}
