{
	"asset":{
		"generator":"Khronos glTF Blender I/O v4.0.44",
		"version":"2.0"
	},
	"extensionsUsed":[
		"KHR_materials_specular",
		"KHR_materials_ior"
	],
	"scene":0,
	"scenes":[
		{
			"name":"Scene",
			"nodes":[
				0,
				1,
				2,
				3,
				4
			]
		}
	],
	"nodes":[
		{
			"mesh":0,
			"name":"face"
		},
		{
			"mesh":1,
			"name":"fond"
		},
		{
			"mesh":2,
			"name":"lubber"
		},
		{
			"mesh":3,
			"name":"mount",
			"translation":[
				-0.04229399561882019,
				0.037385400384664536,
				-0.03174490109086037
			]
		},
		{
			"mesh":4,
			"name":"vitre"
		}
	],
	"materials":[
		{
			"doubleSided":true,
			"extensions":{
				"KHR_materials_specular":{
					"specularFactor":0.6399999856948853
				},
				"KHR_materials_ior":{
					"ior":1.4500000476837158
				}
			},
			"name":"DefaultWhite",
			"pbrMetallicRoughness":{
				"baseColorTexture":{
					"index":0
				},
				"metallicFactor":0,
				"roughnessFactor":0.5
			}
		},
		{
			"alphaMode":"BLEND",
			"doubleSided":true,
			"extensions":{
				"KHR_materials_specular":{
					"specularColorFactor":[
						1.2799999713897705,
						1.2799999713897705,
						1.2799999713897705
					]
				},
				"KHR_materials_ior":{
					"ior":1.4500000476837158
				}
			},
			"name":"transparent",
			"pbrMetallicRoughness":{
				"baseColorFactor":[
					0.708004891872406,
					0.7321300506591797,
					0.7717609405517578,
					0.09055116772651672
				],
				"metallicFactor":0.05000000074505806,
				"roughnessFactor":0.4000000059604645
			}
		}
	],
	"meshes":[
		{
			"name":"face.mesh",
			"primitives":[
				{
					"attributes":{
						"POSITION":0,
						"NORMAL":1,
						"TEXCOORD_0":2
					},
					"indices":3,
					"material":0
				}
			]
		},
		{
			"name":"fond.mesh",
			"primitives":[
				{
					"attributes":{
						"POSITION":4,
						"NORMAL":5,
						"TEXCOORD_0":6
					},
					"indices":7,
					"material":0
				}
			]
		},
		{
			"name":"lubber.mesh",
			"primitives":[
				{
					"attributes":{
						"POSITION":8,
						"NORMAL":9,
						"TEXCOORD_0":10
					},
					"indices":11,
					"material":0
				}
			]
		},
		{
			"name":"mount.mesh",
			"primitives":[
				{
					"attributes":{
						"POSITION":12,
						"NORMAL":13,
						"TEXCOORD_0":14
					},
					"indices":15,
					"material":0
				}
			]
		},
		{
			"name":"vitre.mesh",
			"primitives":[
				{
					"attributes":{
						"POSITION":16,
						"NORMAL":17,
						"TEXCOORD_0":18
					},
					"indices":19,
					"material":1
				}
			]
		}
	],
	"textures":[
		{
			"sampler":0,
			"source":0
		}
	],
	"images":[
		{
			"mimeType":"image/png",
			"name":"compass.png",
			"uri":"compass.png"
		}
	],
	"accessors":[
		{
			"bufferView":0,
			"componentType":5126,
			"count":33,
			"max":[
				0.00013399998715613037,
				0.024914000183343887,
				0.024914000183343887
			],
			"min":[
				0.00013399998715613037,
				-0.024914000183343887,
				-0.024914000183343887
			],
			"type":"VEC3"
		},
		{
			"bufferView":1,
			"componentType":5126,
			"count":33,
			"type":"VEC3"
		},
		{
			"bufferView":2,
			"componentType":5126,
			"count":33,
			"type":"VEC2"
		},
		{
			"bufferView":3,
			"componentType":5123,
			"count":96,
			"type":"SCALAR"
		},
		{
			"bufferView":4,
			"componentType":5126,
			"count":499,
			"max":[
				0.0017699998570606112,
				0.02844100072979927,
				0.030059799551963806
			],
			"min":[
				-0.0479699969291687,
				-0.02844100072979927,
				-0.0281360000371933
			],
			"type":"VEC3"
		},
		{
			"bufferView":5,
			"componentType":5126,
			"count":499,
			"type":"VEC3"
		},
		{
			"bufferView":6,
			"componentType":5126,
			"count":499,
			"type":"VEC2"
		},
		{
			"bufferView":7,
			"componentType":5123,
			"count":936,
			"type":"SCALAR"
		},
		{
			"bufferView":8,
			"componentType":5126,
			"count":263,
			"max":[
				0.000998999923467636,
				0.00961500033736229,
				0.01995900087058544
			],
			"min":[
				0.00029999998514540493,
				-0.00961500033736229,
				-0.009092999622225761
			],
			"type":"VEC3"
		},
		{
			"bufferView":9,
			"componentType":5126,
			"count":263,
			"type":"VEC3"
		},
		{
			"bufferView":10,
			"componentType":5126,
			"count":263,
			"type":"VEC2"
		},
		{
			"bufferView":11,
			"componentType":5123,
			"count":471,
			"type":"SCALAR"
		},
		{
			"bufferView":12,
			"componentType":5126,
			"count":284,
			"max":[
				0.04251439869403839,
				0.0037273913621902466,
				0.09498260170221329
			],
			"min":[
				-0.00756329670548439,
				-0.07842130959033966,
				0.00011029839515686035
			],
			"type":"VEC3"
		},
		{
			"bufferView":13,
			"componentType":5126,
			"count":284,
			"type":"VEC3"
		},
		{
			"bufferView":14,
			"componentType":5126,
			"count":284,
			"type":"VEC2"
		},
		{
			"bufferView":15,
			"componentType":5123,
			"count":1044,
			"type":"SCALAR"
		},
		{
			"bufferView":16,
			"componentType":5126,
			"count":908,
			"max":[
				0.0056839995086193085,
				0.025823000818490982,
				0.025551000609993935
			],
			"min":[
				0.001354999840259552,
				-0.025111999362707138,
				-0.02538299933075905
			],
			"type":"VEC3"
		},
		{
			"bufferView":17,
			"componentType":5126,
			"count":908,
			"type":"VEC3"
		},
		{
			"bufferView":18,
			"componentType":5126,
			"count":908,
			"type":"VEC2"
		},
		{
			"bufferView":19,
			"componentType":5123,
			"count":1566,
			"type":"SCALAR"
		}
	],
	"bufferViews":[
		{
			"buffer":0,
			"byteLength":396,
			"byteOffset":0,
			"target":34962
		},
		{
			"buffer":0,
			"byteLength":396,
			"byteOffset":396,
			"target":34962
		},
		{
			"buffer":0,
			"byteLength":264,
			"byteOffset":792,
			"target":34962
		},
		{
			"buffer":0,
			"byteLength":192,
			"byteOffset":1056,
			"target":34963
		},
		{
			"buffer":0,
			"byteLength":5988,
			"byteOffset":1248,
			"target":34962
		},
		{
			"buffer":0,
			"byteLength":5988,
			"byteOffset":7236,
			"target":34962
		},
		{
			"buffer":0,
			"byteLength":3992,
			"byteOffset":13224,
			"target":34962
		},
		{
			"buffer":0,
			"byteLength":1872,
			"byteOffset":17216,
			"target":34963
		},
		{
			"buffer":0,
			"byteLength":3156,
			"byteOffset":19088,
			"target":34962
		},
		{
			"buffer":0,
			"byteLength":3156,
			"byteOffset":22244,
			"target":34962
		},
		{
			"buffer":0,
			"byteLength":2104,
			"byteOffset":25400,
			"target":34962
		},
		{
			"buffer":0,
			"byteLength":942,
			"byteOffset":27504,
			"target":34963
		},
		{
			"buffer":0,
			"byteLength":3408,
			"byteOffset":28448,
			"target":34962
		},
		{
			"buffer":0,
			"byteLength":3408,
			"byteOffset":31856,
			"target":34962
		},
		{
			"buffer":0,
			"byteLength":2272,
			"byteOffset":35264,
			"target":34962
		},
		{
			"buffer":0,
			"byteLength":2088,
			"byteOffset":37536,
			"target":34963
		},
		{
			"buffer":0,
			"byteLength":10896,
			"byteOffset":39624,
			"target":34962
		},
		{
			"buffer":0,
			"byteLength":10896,
			"byteOffset":50520,
			"target":34962
		},
		{
			"buffer":0,
			"byteLength":7264,
			"byteOffset":61416,
			"target":34962
		},
		{
			"buffer":0,
			"byteLength":3132,
			"byteOffset":68680,
			"target":34963
		}
	],
	"samplers":[
		{
			"magFilter":9729,
			"minFilter":9987
		}
	],
	"buffers":[
		{
			"byteLength":71812,
			"uri":"compass.bin"
		}
	]
}
