{
	"asset":{
		"generator":"Khronos glTF Blender I/O v4.0.44",
		"version":"2.0"
	},
	"extensionsUsed":[
		"KHR_materials_specular",
		"KHR_materials_ior"
	],
	"scene":0,
	"scenes":[
		{
			"name":"Scene",
			"nodes":[
				0,
				1,
				2,
				3
			]
		}
	],
	"nodes":[
		{
			"mesh":0,
			"name":"collective.head",
			"translation":[
				-0.20200026035308838,
				-0.01908223330974579,
				0.12441760301589966
			]
		},
		{
			"mesh":1,
			"name":"collective.leather",
			"translation":[
				-0.20200026035308838,
				-0.01908223330974579,
				0.12441760301589966
			]
		},
		{
			"mesh":2,
			"name":"collective.shaft",
			"translation":[
				-0.20200026035308838,
				-0.01908223330974579,
				0.12441760301589966
			]
		},
		{
			"mesh":3,
			"name":"caxis",
			"translation":[
				-0.20200026035308838,
				-0.01908223330974579,
				0.12441760301589966
			]
		}
	],
	"materials":[
		{
			"doubleSided":true,
			"extensions":{
				"KHR_materials_specular":{
					"specularFactor":0.7099999785423279
				},
				"KHR_materials_ior":{
					"ior":1.4500000476837158
				}
			},
			"name":"Material2",
			"normalTexture":{
				"index":0
			},
			"pbrMetallicRoughness":{
				"baseColorTexture":{
					"index":1
				},
				"metallicFactor":0,
				"roughnessFactor":0.699999988079071
			}
		},
		{
			"doubleSided":true,
			"extensions":{
				"KHR_materials_specular":{
					"specularFactor":0.007600000128149986
				},
				"KHR_materials_ior":{
					"ior":1.4500000476837158
				}
			},
			"name":"Material3",
			"normalTexture":{
				"index":2,
				"scale":4
			},
			"pbrMetallicRoughness":{
				"baseColorTexture":{
					"index":3
				},
				"metallicFactor":0
			}
		},
		{
			"doubleSided":true,
			"extensions":{
				"KHR_materials_specular":{
					"specularFactor":0.10000000149011612
				},
				"KHR_materials_ior":{
					"ior":1.4500000476837158
				}
			},
			"name":"DefaultWhite.001",
			"pbrMetallicRoughness":{
				"metallicFactor":0.5,
				"roughnessFactor":0.20000000298023224
			}
		},
		{
			"doubleSided":true,
			"extensions":{
				"KHR_materials_specular":{
					"specularFactor":0.10000000149011612
				},
				"KHR_materials_ior":{
					"ior":1.4500000476837158
				}
			},
			"name":"ButtonRed",
			"pbrMetallicRoughness":{
				"baseColorFactor":[
					1,
					0,
					0,
					1
				],
				"metallicFactor":0,
				"roughnessFactor":0.5
			}
		},
		{
			"doubleSided":true,
			"name":"DarkMetal",
			"pbrMetallicRoughness":{
				"baseColorFactor":[
					0.02370000071823597,
					0.02370000071823597,
					0.02370000071823597,
					1
				],
				"metallicFactor":0.30000001192092896,
				"roughnessFactor":0.5
			}
		},
		{
			"doubleSided":true,
			"name":"DarkPlastic",
			"pbrMetallicRoughness":{
				"baseColorFactor":[
					0.027718249708414078,
					0.027718249708414078,
					0.027718249708414078,
					1
				],
				"metallicFactor":0,
				"roughnessFactor":0.800000011920929
			}
		}
	],
	"meshes":[
		{
			"name":"collective.head.mesh",
			"primitives":[
				{
					"attributes":{
						"POSITION":0,
						"NORMAL":1,
						"TEXCOORD_0":2
					},
					"indices":3,
					"material":0
				}
			]
		},
		{
			"name":"collective.leather.mesh",
			"primitives":[
				{
					"attributes":{
						"POSITION":4,
						"NORMAL":5,
						"TEXCOORD_0":6
					},
					"indices":7,
					"material":1
				}
			]
		},
		{
			"name":"collective.shaft.mesh",
			"primitives":[
				{
					"attributes":{
						"POSITION":8,
						"NORMAL":9,
						"TEXCOORD_0":10
					},
					"indices":11,
					"material":2
				},
				{
					"attributes":{
						"POSITION":12,
						"NORMAL":13,
						"TEXCOORD_0":14
					},
					"indices":15,
					"material":3
				},
				{
					"attributes":{
						"POSITION":16,
						"NORMAL":17,
						"TEXCOORD_0":18
					},
					"indices":19,
					"material":4
				},
				{
					"attributes":{
						"POSITION":20,
						"NORMAL":21,
						"TEXCOORD_0":22
					},
					"indices":23,
					"material":5
				}
			]
		},
		{
			"name":"Mesh",
			"primitives":[
				{
					"attributes":{
						"POSITION":24
					},
					"indices":25,
					"mode":1
				}
			]
		}
	],
	"textures":[
		{
			"sampler":0,
			"source":0
		},
		{
			"sampler":0,
			"source":1
		},
		{
			"sampler":0,
			"source":2
		},
		{
			"sampler":0,
			"source":3
		}
	],
	"images":[
		{
			"mimeType":"image/png",
			"name":"collective-normal-2.png",
			"uri":"collective-normal-2.png"
		},
		{
			"mimeType":"image/png",
			"name":"collective-texture.png.001",
			"uri":"collective-texture.png"
		},
		{
			"mimeType":"image/png",
			"name":"glaresh-normal.png",
			"uri":"glaresh-normal.png"
		},
		{
			"mimeType":"image/png",
			"name":"glaresh-texture.png.001",
			"uri":"glaresh-texture.png"
		}
	],
	"accessors":[
		{
			"bufferView":0,
			"componentType":5126,
			"count":593,
			"max":[
				-0.10844727605581284,
				0.06627322733402252,
				0.21948179602622986
			],
			"min":[
				-0.2963394820690155,
				-0.03133447468280792,
				0.06099339574575424
			],
			"type":"VEC3"
		},
		{
			"bufferView":1,
			"componentType":5126,
			"count":593,
			"type":"VEC3"
		},
		{
			"bufferView":2,
			"componentType":5126,
			"count":593,
			"type":"VEC2"
		},
		{
			"bufferView":3,
			"componentType":5123,
			"count":1938,
			"type":"SCALAR"
		},
		{
			"bufferView":4,
			"componentType":5126,
			"count":166,
			"max":[
				0.36966484785079956,
				0.05202183127403259,
				-0.0739033967256546
			],
			"min":[
				0.1326528638601303,
				-0.018884768709540367,
				-0.23445038497447968
			],
			"type":"VEC3"
		},
		{
			"bufferView":5,
			"componentType":5126,
			"count":166,
			"type":"VEC3"
		},
		{
			"bufferView":6,
			"componentType":5126,
			"count":166,
			"type":"VEC2"
		},
		{
			"bufferView":7,
			"componentType":5123,
			"count":498,
			"type":"SCALAR"
		},
		{
			"bufferView":8,
			"componentType":5126,
			"count":416,
			"max":[
				-0.11043479293584824,
				0.05578911304473877,
				0.1888289898633957
			],
			"min":[
				-0.3043402135372162,
				-0.020081283524632454,
				0.06494809687137604
			],
			"type":"VEC3"
		},
		{
			"bufferView":9,
			"componentType":5126,
			"count":416,
			"type":"VEC3"
		},
		{
			"bufferView":10,
			"componentType":5126,
			"count":416,
			"type":"VEC2"
		},
		{
			"bufferView":11,
			"componentType":5123,
			"count":684,
			"type":"SCALAR"
		},
		{
			"bufferView":12,
			"componentType":5126,
			"count":116,
			"max":[
				-0.19526490569114685,
				0.055347830057144165,
				0.18970437347888947
			],
			"min":[
				-0.23665550351142883,
				-0.01601770706474781,
				0.13029159605503082
			],
			"type":"VEC3"
		},
		{
			"bufferView":13,
			"componentType":5126,
			"count":116,
			"type":"VEC3"
		},
		{
			"bufferView":14,
			"componentType":5126,
			"count":116,
			"type":"VEC2"
		},
		{
			"bufferView":15,
			"componentType":5123,
			"count":186,
			"type":"SCALAR"
		},
		{
			"bufferView":16,
			"componentType":5126,
			"count":160,
			"max":[
				0.18817928433418274,
				0.03320401906967163,
				0.0898478776216507
			],
			"min":[
				-0.13182669878005981,
				-0.0005912799388170242,
				-0.1261391043663025
			],
			"type":"VEC3"
		},
		{
			"bufferView":17,
			"componentType":5126,
			"count":160,
			"type":"VEC3"
		},
		{
			"bufferView":18,
			"componentType":5126,
			"count":160,
			"type":"VEC2"
		},
		{
			"bufferView":19,
			"componentType":5123,
			"count":252,
			"type":"SCALAR"
		},
		{
			"bufferView":20,
			"componentType":5126,
			"count":262,
			"max":[
				-0.2187378704547882,
				0.062499597668647766,
				0.19774548709392548
			],
			"min":[
				-0.24039539694786072,
				0.02078831009566784,
				0.17579029500484467
			],
			"type":"VEC3"
		},
		{
			"bufferView":21,
			"componentType":5126,
			"count":262,
			"type":"VEC3"
		},
		{
			"bufferView":22,
			"componentType":5126,
			"count":262,
			"type":"VEC2"
		},
		{
			"bufferView":23,
			"componentType":5123,
			"count":525,
			"type":"SCALAR"
		},
		{
			"bufferView":24,
			"componentType":5126,
			"count":2,
			"max":[
				0.32030189037323,
				0.5175522565841675,
				-0.1833014190196991
			],
			"min":[
				0.32030177116394043,
				-0.48244765400886536,
				-0.1833014190196991
			],
			"type":"VEC3"
		},
		{
			"bufferView":25,
			"componentType":5123,
			"count":2,
			"type":"SCALAR"
		}
	],
	"bufferViews":[
		{
			"buffer":0,
			"byteLength":7116,
			"byteOffset":0,
			"target":34962
		},
		{
			"buffer":0,
			"byteLength":7116,
			"byteOffset":7116,
			"target":34962
		},
		{
			"buffer":0,
			"byteLength":4744,
			"byteOffset":14232,
			"target":34962
		},
		{
			"buffer":0,
			"byteLength":3876,
			"byteOffset":18976,
			"target":34963
		},
		{
			"buffer":0,
			"byteLength":1992,
			"byteOffset":22852,
			"target":34962
		},
		{
			"buffer":0,
			"byteLength":1992,
			"byteOffset":24844,
			"target":34962
		},
		{
			"buffer":0,
			"byteLength":1328,
			"byteOffset":26836,
			"target":34962
		},
		{
			"buffer":0,
			"byteLength":996,
			"byteOffset":28164,
			"target":34963
		},
		{
			"buffer":0,
			"byteLength":4992,
			"byteOffset":29160,
			"target":34962
		},
		{
			"buffer":0,
			"byteLength":4992,
			"byteOffset":34152,
			"target":34962
		},
		{
			"buffer":0,
			"byteLength":3328,
			"byteOffset":39144,
			"target":34962
		},
		{
			"buffer":0,
			"byteLength":1368,
			"byteOffset":42472,
			"target":34963
		},
		{
			"buffer":0,
			"byteLength":1392,
			"byteOffset":43840,
			"target":34962
		},
		{
			"buffer":0,
			"byteLength":1392,
			"byteOffset":45232,
			"target":34962
		},
		{
			"buffer":0,
			"byteLength":928,
			"byteOffset":46624,
			"target":34962
		},
		{
			"buffer":0,
			"byteLength":372,
			"byteOffset":47552,
			"target":34963
		},
		{
			"buffer":0,
			"byteLength":1920,
			"byteOffset":47924,
			"target":34962
		},
		{
			"buffer":0,
			"byteLength":1920,
			"byteOffset":49844,
			"target":34962
		},
		{
			"buffer":0,
			"byteLength":1280,
			"byteOffset":51764,
			"target":34962
		},
		{
			"buffer":0,
			"byteLength":504,
			"byteOffset":53044,
			"target":34963
		},
		{
			"buffer":0,
			"byteLength":3144,
			"byteOffset":53548,
			"target":34962
		},
		{
			"buffer":0,
			"byteLength":3144,
			"byteOffset":56692,
			"target":34962
		},
		{
			"buffer":0,
			"byteLength":2096,
			"byteOffset":59836,
			"target":34962
		},
		{
			"buffer":0,
			"byteLength":1050,
			"byteOffset":61932,
			"target":34963
		},
		{
			"buffer":0,
			"byteLength":24,
			"byteOffset":62984,
			"target":34962
		},
		{
			"buffer":0,
			"byteLength":4,
			"byteOffset":63008,
			"target":34963
		}
	],
	"samplers":[
		{
			"magFilter":9729,
			"minFilter":9987
		}
	],
	"buffers":[
		{
			"byteLength":63012,
			"uri":"collective.bin"
		}
	]
}
